<svg width="14" height="16" class="stories__info-icon" viewBox="0 0 16 16" fill="#C8C5D1" xmlns="http://www.w3.org/2000/svg">
  <path d="M7.61328 10.9014L8.65918 9.8418C7.85254 9.77344 7.27148 9.50684 6.85449 9.08984C5.69922 7.93457 5.69922 6.30078 6.84766 5.15918L9.11719 2.88281C10.2725 1.73438 11.8994 1.72754 13.0547 2.88281C14.2168 4.04492 14.2031 5.67188 13.0615 6.82031L11.8994 7.97559C12.1182 8.48145 12.1934 9.09668 12.0703 9.62988L14.0254 7.68164C15.707 6.00684 15.7139 3.61426 14.0186 1.91895C12.3164 0.216797 9.9375 0.230469 8.25586 1.91211L5.87695 4.29102C4.19531 5.97266 4.18848 8.3584 5.88379 10.0537C6.28027 10.457 6.82715 10.7578 7.61328 10.9014ZM8.24902 5.125L7.20312 6.18457C8.00977 6.25977 8.59082 6.51953 9.00781 6.93652C10.1699 8.0918 10.1631 9.72559 9.01465 10.874L6.74512 13.1436C5.58984 14.2988 3.96289 14.2988 2.81445 13.1436C1.65234 11.9814 1.65918 10.3613 2.80762 9.21289L3.96289 8.05078C3.74414 7.55176 3.67578 6.93652 3.79199 6.39648L1.83691 8.35156C0.155273 10.0264 0.148438 12.4121 1.84375 14.1074C3.5459 15.8096 5.9248 15.7959 7.60645 14.1211L9.98535 11.7354C11.667 10.0537 11.6738 7.66797 9.97852 5.97266C9.58203 5.57617 9.04199 5.27539 8.24902 5.125Z" />
</svg>